<svg width="72" height="72" viewBox="0 0 72 72" fill="none" xmlns="http://www.w3.org/2000/svg">
<path d="M54.4592 10.434H16.7233C13.2498 10.434 10.434 13.2498 10.434 16.7233V54.4592C10.434 57.9327 13.2498 60.7485 16.7233 60.7485H54.4592C57.9327 60.7485 60.7485 57.9327 60.7485 54.4592V16.7233C60.7485 13.2498 57.9327 10.434 54.4592 10.434Z" stroke="#5498FF" stroke-width="2" stroke-linecap="round" stroke-linejoin="round"/>
<path d="M45.0253 26.1573H26.1573V45.0253H45.0253V26.1573Z" stroke="#5498FF" stroke-width="2" stroke-linecap="round" stroke-linejoin="round"/>
<path d="M26.1573 1V10.434" stroke="#5498FF" stroke-width="2" stroke-linecap="round" stroke-linejoin="round"/>
<path d="M45.0251 1V10.434" stroke="#5498FF" stroke-width="2" stroke-linecap="round" stroke-linejoin="round"/>
<path d="M26.1573 60.7485V70.1825" stroke="#5498FF" stroke-width="2" stroke-linecap="round" stroke-linejoin="round"/>
<path d="M45.0251 60.7485V70.1825" stroke="#5498FF" stroke-width="2" stroke-linecap="round" stroke-linejoin="round"/>
<path d="M60.7485 26.1573H70.1825" stroke="#5498FF" stroke-width="2" stroke-linecap="round" stroke-linejoin="round"/>
<path d="M60.7485 41.8806H70.1825" stroke="#5498FF" stroke-width="2" stroke-linecap="round" stroke-linejoin="round"/>
<path d="M1 26.1573H10.434" stroke="#5498FF" stroke-width="2" stroke-linecap="round" stroke-linejoin="round"/>
<path d="M1 41.8806H10.434" stroke="#5498FF" stroke-width="2" stroke-linecap="round" stroke-linejoin="round"/>
</svg>
