<svg width="119" height="118" viewBox="0 0 119 118" fill="none" xmlns="http://www.w3.org/2000/svg">
<path d="M59.6111 117C91.4879 117 117.329 91.1587 117.329 59.282C117.329 27.4052 91.4879 1.56396 59.6111 1.56396C27.7344 1.56396 1.89313 27.4052 1.89313 59.282C1.89313 91.1587 27.7344 117 59.6111 117Z" stroke="#5498FF" stroke-width="2" stroke-linecap="round" stroke-linejoin="round"/>
<path d="M59.6112 93.9127C78.7373 93.9127 94.242 78.408 94.242 59.2819C94.242 40.1559 78.7373 24.6511 59.6112 24.6511C40.4851 24.6511 24.9804 40.1559 24.9804 59.2819C24.9804 78.408 40.4851 93.9127 59.6112 93.9127Z" stroke="#5498FF" stroke-width="2" stroke-linecap="round" stroke-linejoin="round"/>
<path d="M59.6113 70.826C65.9866 70.826 71.1549 65.6577 71.1549 59.2824C71.1549 52.907 65.9866 47.7388 59.6113 47.7388C53.2359 47.7388 48.0677 52.907 48.0677 59.2824C48.0677 65.6577 53.2359 70.826 59.6113 70.826Z" stroke="#5498FF" stroke-width="2" stroke-linecap="round" stroke-linejoin="round"/>
</svg>
