<svg width="65" height="53" viewBox="0 0 65 53" fill="none" xmlns="http://www.w3.org/2000/svg">
<path d="M63.8931 26.1573H45.0252L38.7359 35.5913H26.1573L19.8679 26.1573H1" stroke="#5498FF" stroke-width="2" stroke-linecap="round" stroke-linejoin="round"/>
<path d="M11.8491 4.49057L1 26.1573V45.0252C1 46.6932 1.66262 48.2929 2.8421 49.4724C4.02157 50.6519 5.62128 51.3145 7.28931 51.3145H57.6038C59.2719 51.3145 60.8716 50.6519 62.051 49.4724C63.2305 48.2929 63.8931 46.6932 63.8931 45.0252V26.1573L53.0441 4.49057C52.5234 3.44273 51.7207 2.56092 50.7263 1.94428C49.7319 1.32764 48.5852 1.00062 47.4151 1H17.478C16.3079 1.00062 15.1612 1.32764 14.1668 1.94428C13.1724 2.56092 12.3698 3.44273 11.8491 4.49057V4.49057Z" stroke="#5498FF" stroke-width="2" stroke-linecap="round" stroke-linejoin="round"/>
</svg>
