<svg width="64" height="54" viewBox="0 0 64 54" fill="none" xmlns="http://www.w3.org/2000/svg">
<path d="M26.7455 3.73673L1.78968 43.9316C1.27515 44.7912 1.0029 45.7659 1.00002 46.7586C0.997142 47.7513 1.26373 48.7274 1.77326 49.5899C2.2828 50.4523 3.01751 51.171 3.90432 51.6745C4.79113 52.1779 5.79911 52.4486 6.82799 52.4595H56.7396C57.7685 52.4486 58.7764 52.1779 59.6632 51.6745C60.5501 51.171 61.2848 50.4523 61.7943 49.5899C62.3038 48.7274 62.5704 47.7513 62.5675 46.7586C62.5647 45.7659 62.2924 44.7912 61.7779 43.9316L36.8221 3.73673C36.2968 2.9013 35.5573 2.21057 34.6748 1.7312C33.7922 1.25183 32.7966 1 31.7838 1C30.771 1 29.7753 1.25183 28.8928 1.7312C28.0103 2.21057 27.2707 2.9013 26.7455 3.73673V3.73673Z" stroke="#5498FF" stroke-width="2" stroke-linecap="round" stroke-linejoin="round"/>
</svg>
