<svg width="127" height="67" viewBox="0 0 127 67" fill="none" xmlns="http://www.w3.org/2000/svg">
<g clip-path="url(#clip0_2:423)">
<path d="M7.06431 32.8854C7.62317 32.8974 8.18139 32.8406 8.72649 32.7163C9.10289 32.6316 9.45986 32.476 9.77845 32.2576C10.0226 32.0857 10.2124 31.8469 10.325 31.5697C10.4299 31.2859 10.4819 30.9852 10.4785 30.6825C10.4756 30.3346 10.3843 29.9933 10.2133 29.6907C10.0424 29.3881 9.79732 29.1343 9.50142 28.9533C8.45395 28.3135 7.32751 27.8143 6.15086 27.4684C5.46204 27.2241 4.76946 26.9459 4.08063 26.6301C3.40159 26.3262 2.77088 25.9234 2.20882 25.4347C1.65221 24.9474 1.19678 24.3547 0.8686 23.6905C0.499966 22.9131 0.321556 22.0586 0.348229 21.1981C0.336502 20.291 0.524415 19.3924 0.898544 18.5667C1.25886 17.7894 1.79007 17.1043 2.45216 16.563C3.17462 15.9854 4.00249 15.5551 4.88926 15.2962C5.94092 14.9813 7.03393 14.828 8.13125 14.8413C9.37589 14.8172 10.6176 14.9716 11.8187 15.2999C12.7036 15.5455 13.5606 15.8831 14.3756 16.3074L13.0055 20.0666C12.3736 19.7433 11.7163 19.4729 11.0401 19.2584C10.1966 19.0046 9.31858 18.8853 8.43823 18.905C7.31514 18.905 6.48031 19.0629 5.98616 19.3787C5.74253 19.5311 5.54437 19.7466 5.41259 20.0027C5.28081 20.2587 5.2203 20.5458 5.23743 20.8335C5.22673 21.1797 5.32211 21.5208 5.51071 21.8109C5.71899 22.1008 5.98395 22.3451 6.28939 22.5289C6.65524 22.7603 7.04266 22.9555 7.44617 23.1115C7.88418 23.2845 8.3671 23.4611 8.89496 23.6453C9.99309 24.0563 10.9477 24.4598 11.7588 24.8558C12.5041 25.207 13.1879 25.6767 13.7841 26.2467C14.3197 26.775 14.7304 27.4173 14.9858 28.1263C15.2705 28.963 15.4048 29.8438 15.3827 30.7277C15.3827 32.705 14.6926 34.24 13.3124 35.3327C11.9323 36.4253 9.84958 36.9704 7.06431 36.9679C6.219 36.9739 5.3744 36.9173 4.53736 36.7987C3.86418 36.7035 3.19772 36.5654 2.54201 36.3852C2.03114 36.2485 1.5307 36.0751 1.04455 35.8665C0.629008 35.6823 0.295829 35.5093 -0.00366211 35.3477L1.33655 31.5547C2.07787 31.9469 2.85839 32.2594 3.6651 32.4869C4.77368 32.7806 5.91817 32.9148 7.06431 32.8854Z" fill="white"/>
<path d="M26.0145 27.9985C26.0145 26.5287 25.8236 25.4874 25.4492 24.8784C25.0749 24.2694 24.4309 23.9611 23.5138 23.9611C23.2292 23.9611 22.9372 23.9611 22.6303 24.0062C22.3233 24.0514 22.0313 24.0739 21.7468 24.1115V36.5168H17.2095V20.9763C17.5838 20.8748 18.048 20.7696 18.5647 20.6568C19.0813 20.544 19.6316 20.4425 20.2119 20.3485C20.7921 20.2546 21.3836 20.1869 21.9938 20.138C22.6041 20.0892 23.1993 20.0591 23.7908 20.0591C24.7487 20.027 25.7039 20.1775 26.606 20.5027C27.2541 20.7535 27.8562 21.1104 28.388 21.559C29.0734 21.0739 29.8317 20.7021 30.6342 20.4576C31.3874 20.2084 32.1735 20.0741 32.9664 20.0591C34.0425 20.0233 35.1146 20.2061 36.1186 20.5967C36.8942 20.9152 37.5723 21.4339 38.084 22.1003C38.5877 22.7912 38.9317 23.5861 39.091 24.4273C39.2811 25.4182 39.3727 26.4256 39.3643 27.4346V36.5206H34.8233V27.9985C34.8233 26.5299 34.6361 25.4899 34.2617 24.8784C33.8874 24.2669 33.2422 23.9611 32.3263 23.9611C31.9795 23.9784 31.6361 24.039 31.3043 24.1416C30.9251 24.2425 30.5621 24.3969 30.2261 24.6002C30.3684 25.0843 30.4599 25.5819 30.4994 26.0851C30.5406 26.6038 30.5593 27.1602 30.5593 27.7542V36.5319H26.022L26.0145 27.9985Z" fill="white"/>
<path d="M47.7015 19.9986C48.8356 19.9694 49.967 20.1242 51.052 20.4572C51.865 20.7121 52.603 21.1639 53.2009 21.7729C53.7421 22.3609 54.1282 23.0756 54.3239 23.8518C54.5576 24.7397 54.6709 25.6551 54.6609 26.5734V36.0578C54.0095 36.2007 53.106 36.3686 51.9505 36.5616C50.5594 36.774 49.1534 36.872 47.7464 36.8548C46.7995 36.8633 45.8545 36.77 44.9274 36.5766C44.1491 36.4229 43.4086 36.1163 42.7486 35.6744C42.1461 35.2633 41.663 34.699 41.3485 34.0392C41.0019 33.261 40.8355 32.414 40.8618 31.5619C40.836 30.7304 41.0297 29.9068 41.4234 29.1748C41.7841 28.5367 42.2991 28.0002 42.9208 27.6147C43.5888 27.2118 44.3207 26.927 45.0847 26.7727C45.9156 26.5978 46.7626 26.5109 47.6116 26.5133C48.1354 26.5107 48.659 26.5358 49.1802 26.5885C49.5591 26.6261 49.9345 26.6927 50.3033 26.7877V26.3591C50.3211 26.0144 50.2682 25.6696 50.1477 25.3463C50.0273 25.023 49.842 24.728 49.6032 24.4796C49.1365 24.0109 48.3242 23.7766 47.1661 23.7766C46.4018 23.776 45.6385 23.8325 44.8825 23.9457C44.218 24.0367 43.5645 24.1954 42.9321 24.4194L42.3518 20.7467C42.6176 20.6677 42.947 20.5813 43.3439 20.4873C43.7407 20.3933 44.1712 20.3144 44.6392 20.2429C45.1071 20.1715 45.5975 20.1114 46.1142 20.0587C46.6308 20.0061 47.1736 19.9986 47.7015 19.9986ZM48.0758 33.3362C48.5213 33.3362 48.9481 33.3362 49.3561 33.3061C49.682 33.2921 50.0069 33.2607 50.3295 33.2121V29.7574C50.0572 29.7022 49.7823 29.6608 49.5059 29.6334C49.1728 29.5945 48.8379 29.5744 48.5026 29.5732C48.1008 29.5723 47.6994 29.5974 47.3009 29.6484C46.9565 29.6911 46.6214 29.7902 46.3088 29.9417C46.0381 30.0713 45.8068 30.2711 45.6387 30.5206C45.4691 30.7954 45.3844 31.1146 45.3954 31.4378C45.3617 31.7306 45.411 32.027 45.5375 32.2929C45.6639 32.5589 45.8625 32.7837 46.1104 32.9415C46.7189 33.2385 47.3929 33.3744 48.0683 33.3362H48.0758Z" fill="white"/>
<path d="M66.9437 24.4645C66.5357 24.363 66.0602 24.254 65.5136 24.145C64.9318 24.0291 64.3398 23.9724 63.7467 23.9758C63.4048 23.9804 63.0635 24.0055 62.7246 24.051C62.4215 24.0855 62.1212 24.142 61.8262 24.2202V36.5165H57.2852V21.2843C58.2294 20.9615 59.1905 20.6904 60.164 20.4723C61.3802 20.2078 62.6222 20.0817 63.8665 20.0964C64.1098 20.0964 64.4055 20.0964 64.75 20.1452C65.0944 20.1941 65.4388 20.2166 65.7869 20.2655C66.1351 20.3144 66.4758 20.3783 66.8202 20.4497C67.1222 20.5078 67.418 20.5947 67.7037 20.7091L66.9437 24.4645Z" fill="white"/>
<path d="M68.4411 16.4201L72.9784 15.687V20.4273H78.4329V24.2392H72.9784V29.8779C72.9416 30.675 73.116 31.4675 73.4838 32.1748C73.817 32.7462 74.4909 33.0282 75.5091 33.0282C76.0112 33.0261 76.5122 32.9808 77.0066 32.8928C77.4903 32.8129 77.9654 32.687 78.4254 32.5169L79.0656 36.0656C78.4703 36.3043 77.8585 36.499 77.235 36.6483C76.4248 36.8252 75.5969 36.9072 74.7679 36.8926C73.7191 36.9255 72.6739 36.7532 71.6906 36.3851C70.9335 36.0897 70.2637 35.6059 69.7439 34.9792C69.2376 34.3402 68.8875 33.5908 68.7219 32.7913C68.5206 31.8578 68.4239 30.9045 68.4337 29.9494L68.4411 16.4201Z" fill="white"/>
<path d="M47.0163 61.3426C46.5858 60.6547 46.0842 59.9066 45.5189 59.1059C44.9536 58.3052 44.3134 57.4969 43.647 56.685C42.9807 55.873 42.2769 55.0911 41.5431 54.343C40.8543 53.6365 40.1203 52.976 39.3456 52.3657V61.3426H34.5912V40.1445H39.3456V48.1103C40.566 46.8246 41.8064 45.4776 43.0668 44.0691C44.3271 42.6607 45.4914 41.3525 46.5596 40.1445H52.2013C50.7637 41.8612 49.3174 43.5128 47.8624 45.0991C46.4074 46.6855 44.8775 48.2819 43.2727 49.8884C45.0613 51.4028 46.6988 53.0886 48.1619 54.9219C49.8026 56.9651 51.3143 59.1095 52.6879 61.3426H47.0163Z" fill="white"/>
<path d="M67.348 53.268C67.3612 54.4487 67.1752 55.6232 66.7977 56.7415C66.4643 57.7405 65.9247 58.6577 65.2142 59.433C64.5202 60.181 63.6736 60.7696 62.7321 61.1585C61.7023 61.58 60.5983 61.7884 59.4864 61.7713C58.3855 61.7864 57.293 61.5779 56.2743 61.1585C55.3329 60.7696 54.4863 60.181 53.7923 59.433C53.0788 58.6546 52.53 57.7389 52.1788 56.7415C51.7803 55.6277 51.5838 54.4513 51.5986 53.268C51.5839 52.0883 51.7857 50.9159 52.1938 49.8095C52.558 48.8205 53.1169 47.9153 53.8372 47.148C54.5426 46.4103 55.3929 45.8278 56.3342 45.4376C57.3331 45.0221 58.4053 44.8136 59.4864 44.8249C60.5786 44.8111 61.6623 45.0196 62.6722 45.4376C63.6101 45.8262 64.4558 46.409 65.1543 47.148C65.8639 47.9179 66.4125 48.823 66.7678 49.8095C67.1654 50.9183 67.362 52.0896 67.348 53.268ZM62.7171 53.268C62.7171 51.862 62.4364 50.7531 61.8786 49.9486C61.6159 49.5589 61.258 49.2432 60.8392 49.032C60.4204 48.8207 59.9546 48.7208 59.4864 48.7419C59.0168 48.7221 58.5499 48.8225 58.1295 49.0336C57.7091 49.2446 57.349 49.5595 57.083 49.9486C56.5139 50.7531 56.2294 51.862 56.2294 53.268C56.2294 54.6739 56.5139 55.7904 57.083 56.6174C57.3437 57.0139 57.7019 57.3361 58.1229 57.5528C58.544 57.7694 59.0136 57.8733 59.4864 57.8542C59.9578 57.8746 60.4263 57.7713 60.8458 57.5544C61.2653 57.3375 61.6213 57.0146 61.8786 56.6174C62.4351 55.7904 62.7146 54.6739 62.7171 53.268Z" fill="white"/>
<path d="M78.9833 49.2903C78.579 49.1888 78.0998 49.0835 77.5533 48.9707C76.9714 48.8548 76.3794 48.7981 75.7863 48.8016C75.4444 48.8062 75.1031 48.8313 74.7643 48.8767C74.4611 48.9112 74.1608 48.9677 73.8658 49.0459V61.3422H69.3285V46.11C70.2726 45.7867 71.2337 45.5156 72.2073 45.298C73.4222 45.0333 74.663 44.9072 75.9061 44.9221C76.1494 44.9221 76.4451 44.9409 76.7896 44.9709C77.134 45.001 77.4821 45.0424 77.8266 45.0912C78.171 45.1401 78.5154 45.204 78.8635 45.2754C79.1654 45.334 79.4612 45.4209 79.747 45.5348L78.9833 49.2903Z" fill="white"/>
<path d="M95.5564 53.2977C95.5679 54.4417 95.4141 55.5813 95.0997 56.681C94.8271 57.6371 94.3719 58.5308 93.7594 59.3124C93.1689 60.0453 92.4182 60.6318 91.5657 61.0266C90.6162 61.4483 89.5863 61.6562 88.5483 61.6356C87.9558 61.6389 87.3647 61.5784 86.785 61.4552C86.2416 61.3328 85.7113 61.1578 85.2015 60.9326V66.9887H80.6642V45.8019C81.0685 45.6816 81.5365 45.5651 82.0643 45.4523C82.5922 45.3395 83.1462 45.2418 83.7265 45.1628C84.3067 45.0839 84.8908 45.0125 85.4935 44.9636C86.0962 44.9147 86.6652 44.8847 87.2118 44.8847C88.4163 44.8646 89.6143 45.0672 90.7458 45.4824C91.7304 45.8467 92.6245 46.4213 93.3664 47.1665C94.0935 47.9141 94.6493 48.8122 94.9948 49.7979C95.3856 50.9222 95.5757 52.107 95.5564 53.2977ZM90.9255 53.4218C90.9255 52.0121 90.611 50.8881 89.9821 50.0385C89.3532 49.1889 88.4173 48.7717 87.1781 48.7717C86.7701 48.7717 86.3957 48.7717 86.055 48.8168C85.7144 48.8619 85.4261 48.8844 85.2015 48.922V57.1509C85.5495 57.362 85.9285 57.5168 86.3246 57.6095C86.7762 57.7321 87.2419 57.794 87.7097 57.7937C89.8536 57.7937 90.9255 56.3364 90.9255 53.4218Z" fill="white"/>
<path d="M112.522 53.2679C112.535 54.4483 112.35 55.6225 111.976 56.7414C111.64 57.7392 111.1 58.6558 110.392 59.433C109.696 60.1803 108.849 60.7687 107.907 61.1585C106.878 61.5802 105.775 61.7886 104.665 61.7712C103.562 61.7866 102.469 61.5782 101.449 61.1585C100.508 60.7683 99.6616 60.1799 98.9667 59.433C98.2559 58.6526 97.7073 57.7375 97.3532 56.7414C96.9565 55.6272 96.76 54.4511 96.773 53.2679C96.7583 52.0882 96.9601 50.9159 97.3682 49.8095C97.7335 48.821 98.2923 47.9161 99.0117 47.148C99.719 46.411 100.57 45.8287 101.512 45.4376C102.511 45.0213 103.583 44.8129 104.665 44.8248C105.756 44.8115 106.838 45.0199 107.847 45.4376C108.785 45.8252 109.631 46.4081 110.329 47.148C111.039 47.9177 111.589 48.8227 111.946 49.8095C112.342 50.9185 112.538 52.0898 112.522 53.2679ZM107.892 53.2679C107.892 51.862 107.615 50.7531 107.057 49.9486C106.794 49.5593 106.436 49.2441 106.017 49.0329C105.598 48.8217 105.133 48.7215 104.665 48.7419C104.194 48.7218 103.727 48.822 103.306 49.0331C102.885 49.2441 102.524 49.5592 102.257 49.9486C101.688 50.7531 101.404 51.862 101.404 53.2679C101.404 54.6739 101.688 55.7904 102.257 56.6174C102.519 57.0142 102.878 57.3365 103.299 57.5532C103.721 57.7698 104.191 57.8735 104.665 57.8542C105.136 57.8738 105.604 57.7702 106.023 57.5534C106.443 57.3366 106.799 57.014 107.057 56.6174C107.616 55.7904 107.894 54.6739 107.892 53.2679Z" fill="white"/>
<path d="M124.161 49.2903C123.753 49.1888 123.278 49.0835 122.728 48.9707C122.146 48.8546 121.554 48.798 120.961 48.8016C120.62 48.8061 120.28 48.8313 119.942 48.8768C119.639 48.9112 119.339 48.9677 119.044 49.0459V61.3422H114.488V46.11C115.432 45.7867 116.393 45.5156 117.367 45.298C118.583 45.0333 119.825 44.9072 121.069 44.9221C121.312 44.9221 121.604 44.9409 121.953 44.9709C122.301 45.001 122.641 45.0424 122.986 45.0912C123.33 45.1401 123.678 45.204 124.023 45.2754C124.325 45.334 124.621 45.4209 124.906 45.5348L124.161 49.2903Z" fill="white"/>
<path d="M87.0994 33.9192C103.717 23.6491 97.2559 0 97.2559 0L117.299 7.69882C111.347 30.0923 87.0994 33.9192 87.0994 33.9192Z" fill="white"/>
<path d="M87.0994 33.9189C108.064 29.844 111.433 9.20605 111.433 9.20605L126.408 27.1073C109.647 43.035 87.0994 33.9189 87.0994 33.9189Z" fill="white"/>
</g>
<defs>
<clipPath id="clip0_2:423">
<rect width="126.415" height="67" fill="white"/>
</clipPath>
</defs>
</svg>
